<?xml version="1.0" encoding="UTF-8"?>
<svg version="1.1" xmlns="http://www.w3.org/2000/svg" width="1536" height="1024">

<path d="M0 0 C6.13517628 0.51966758 12.08012888 1.28373777 18.0859375 2.63671875 C18.81743515 2.79569641 19.5489328 2.95467407 20.30259705 3.11846924 C24.31465727 3.99368532 28.31865397 4.90226085 32.32104492 5.82055664 C39.90408704 7.54591524 47.35265859 9.14162475 55.08984375 9.984375 C73.33335793 12.1930796 73.33335793 12.1930796 79.64453125 19.984375 C83.24439911 25.23175612 86.1745319 30.7880908 89.07666016 36.44335938 C91.98866539 41.97899983 95.59095235 47.0691707 99.13143921 52.21496582 C105.04477871 60.83935627 110.70989 69.60555167 116.09326172 78.5703125 C119.42374552 84.10537489 122.90262274 89.53094188 126.4375 94.9375 C126.97431396 95.7617749 127.51112793 96.5860498 128.06420898 97.43530273 C130.28913255 100.85130316 132.51557216 104.26603877 134.76123047 107.66845703 C136.47726723 110.27169002 138.17731072 112.88477709 139.875 115.5 C140.40536865 116.295271 140.9357373 117.09054199 141.48217773 117.90991211 C141.95985596 118.65120361 142.43753418 119.39249512 142.9296875 120.15625 C143.56753174 121.12788086 143.56753174 121.12788086 144.21826172 122.11914062 C145.22548615 124.54251882 144.93069574 125.5760573 144 128 C143.06030273 129.73925781 143.06030273 129.73925781 141.93359375 131.453125 C141.53076172 132.071875 141.12792969 132.690625 140.71289062 133.328125 C140.29201172 133.96234375 139.87113281 134.5965625 139.4375 135.25 C138.80038086 136.22453125 138.80038086 136.22453125 138.15039062 137.21875 C137.1052694 138.81578918 136.05330163 140.4083442 135 142 C130.62061363 141.40178591 126.83167814 140.31640551 122.72265625 138.69921875 C121.50360596 138.22307129 120.28455566 137.74692383 119.02856445 137.25634766 C117.70652393 136.73344656 116.38450301 136.21049593 115.0625 135.6875 C113.67366128 135.14310463 112.28457776 134.59933342 110.89526367 134.05615234 C108.0145144 132.9293196 105.13483119 131.79982289 102.25585938 130.66845703 C96.41142327 128.37413036 90.55391893 126.11379537 84.69659424 123.85263062 C75.77986918 120.40902254 66.86874678 116.95097335 57.9609375 113.484375 C57.19692123 113.18705475 56.43290497 112.8897345 55.64573669 112.58340454 C52.56219477 111.38331788 49.47869401 110.18312607 46.39541626 108.98236084 C38.63062402 105.9585901 30.86381801 102.94074546 23.08203125 99.9609375 C21.87780518 99.49961426 20.6735791 99.03829102 19.43286133 98.56298828 C17.21077353 97.71309225 14.98799782 96.8649917 12.7644043 96.01904297 C11.30321167 95.46047607 11.30321167 95.46047607 9.8125 94.890625 C8.97332031 94.57125977 8.13414062 94.25189453 7.26953125 93.92285156 C5.11579066 93.04708355 3.07234795 92.05094534 1 91 C-0.04208099 72.09089669 -0.1251463 53.22292295 -0.06866455 34.293396 C-0.05822735 30.41044683 -0.05382438 26.52749056 -0.04882812 22.64453125 C-0.03826931 15.0963356 -0.0213228 7.54817377 0 0 Z " fill="#1B2538" transform="translate(538,244)"/>
<path d="M0 0 C0.99 0.495 0.99 0.495 2 1 C-3.66450508 6.28884855 -9.32088754 11.52990552 -15.375 16.375 C-21.10027069 20.98173011 -26.42180063 25.96812867 -31.77734375 30.9921875 C-34.81794331 33.8422557 -37.92348424 36.60488811 -41.078125 39.328125 C-43.41105074 41.35758073 -45.70511245 43.427647 -48 45.5 C-50.93678465 48.15113994 -53.88602542 50.78290171 -56.875 53.375 C-60.1819165 56.25201736 -63.40705928 59.21193874 -66.625 62.1875 C-72.37531255 67.49892141 -78.29732799 72.59543204 -84.26171875 77.6640625 C-86.17568487 79.28351077 -86.17568487 79.28351077 -88 81 C-88.15988491 83.51880517 -88.25934225 86.01342266 -88.31640625 88.53515625 C-88.3475779 89.66503212 -88.3475779 89.66503212 -88.37937927 90.81773376 C-88.44495425 93.2325599 -88.50379621 95.64749798 -88.5625 98.0625 C-88.6056777 99.69597529 -88.64929173 101.3294391 -88.69335938 102.96289062 C-88.80064362 106.97514464 -88.90188821 110.98751164 -89 115 C-89.82685303 115.17015625 -90.65370605 115.3403125 -91.50561523 115.515625 C-107.25231679 118.77035449 -122.95026821 122.14707436 -138.5625 126 C-149.40707321 128.67539621 -160.26855573 131.20825301 -171.1875 133.5625 C-181.89594491 135.87251653 -192.58297224 138.25515512 -203.25 140.75 C-204.4568042 141.03174072 -205.6636084 141.31348145 -206.90698242 141.60375977 C-213.42026727 143.13337064 -219.90641084 144.72973213 -226.37011719 146.45800781 C-229.04489231 147.00925185 -231.28138356 147.28346726 -234 147 C-236.0546875 144.48046875 -236.0546875 144.48046875 -237.875 141.1875 C-238.49117187 140.10855469 -239.10734375 139.02960938 -239.7421875 137.91796875 C-241 135 -241 135 -240 132 C-238.01433226 130.28605521 -236.02998278 128.6983123 -233.9375 127.125 C-232.65391413 126.13936567 -231.37140344 125.15232992 -230.08984375 124.1640625 C-229.41808105 123.6474707 -228.74631836 123.13087891 -228.05419922 122.59863281 C-224.65721946 119.95501224 -221.33068826 117.2263246 -218 114.5 C-213.03828175 110.44944771 -208.0483251 106.44208969 -203 102.5 C-194.16562754 95.59802788 -185.47729122 88.51424156 -176.82421875 81.38671875 C-175.89222656 80.61972656 -174.96023438 79.85273438 -174 79.0625 C-173.21625 78.41410156 -172.4325 77.76570313 -171.625 77.09765625 C-170.75875 76.40542969 -169.8925 75.71320313 -169 75 C-168.45174561 74.53811279 -167.90349121 74.07622559 -167.33862305 73.6003418 C-161.65816105 69.0238228 -155.54482696 66.39811084 -148.8125 63.6875 C-146.46986107 62.72051471 -144.12741531 61.75306131 -141.78515625 60.78515625 C-140.63031738 60.31223145 -139.47547852 59.83930664 -138.28564453 59.35205078 C-133.75440285 57.48743372 -129.25020928 55.56306267 -124.75 53.625 C-123.92081055 53.26913818 -123.09162109 52.91327637 -122.23730469 52.54663086 C-114.6720066 49.29735948 -107.11716163 46.02390324 -99.5625 42.75 C-98.92616638 42.47430176 -98.28983276 42.19860352 -97.63421631 41.91455078 C-90.6445528 38.88595323 -83.65734857 35.85190647 -76.67578125 32.8046875 C-61.38393995 26.13980122 -46.02949351 19.64682476 -30.61523438 13.27001953 C-21.91913097 9.66727758 -13.25649105 6.01461871 -4.74316406 1.99291992 C-3.18672214 1.27283259 -1.59645208 0.62640082 0 0 Z " fill="#1B2538" transform="translate(1057,241)"/>
<path d="M0 0 C3.27010561 0.46320735 5.03068563 1.60938039 7.4375 3.8125 C8.46810547 4.74835938 8.46810547 4.74835938 9.51953125 5.703125 C10.74736328 6.84007812 10.74736328 6.84007812 12 8 C13.0659838 8.97442069 14.13242002 9.94834657 15.19921875 10.921875 C20.57691136 15.84688696 25.86980299 20.815882 31 26 C29.75143777 29.89257636 28.35534201 33.62375507 26.6796875 37.3515625 C26.00691772 38.85928223 26.00691772 38.85928223 25.32055664 40.39746094 C24.84352295 41.46254883 24.36648926 42.52763672 23.875 43.625 C20.47441769 51.28501476 17.13940292 58.95397619 14.0625 66.75 C13.75707275 67.51828125 13.45164551 68.2865625 13.13696289 69.078125 C11.60606824 72.93227719 10.08248236 76.78905503 8.57226562 80.65136719 C7.26735931 83.98499483 5.9425916 87.31025856 4.6076355 90.63195801 C4.08092964 91.95216933 3.56075023 93.27500464 3.0473938 94.60046387 C2.3257072 96.4615859 1.57931751 98.31307087 0.83203125 100.1640625 C0.40639893 101.24123535 -0.0192334 102.3184082 -0.45776367 103.42822266 C-2.3418243 106.5700138 -3.50977892 107.07043714 -7 108 C-8.67107048 108.4029886 -10.35356725 108.7606365 -12.04296875 109.078125 C-13.50935791 109.36030884 -13.50935791 109.36030884 -15.00537109 109.64819336 C-16.05547363 109.84678955 -17.10557617 110.04538574 -18.1875 110.25 C-27.12384233 111.9875859 -36.01066653 113.86348846 -44.875 115.9375 C-45.93259521 116.18419434 -46.99019043 116.43088867 -48.07983398 116.68505859 C-50.25283579 117.19225061 -52.42576798 117.69974102 -54.59863281 118.20751953 C-60.64472962 119.61619239 -66.69527503 121.00391044 -72.75 122.375 C-73.88679199 122.63788818 -75.02358398 122.90077637 -76.19482422 123.17163086 C-77.25975098 123.41147705 -78.32467773 123.65132324 -79.421875 123.8984375 C-80.82324707 124.21820557 -80.82324707 124.21820557 -82.25292969 124.54443359 C-85.21386689 125.03546708 -88.0036484 125.03016461 -91 125 C-91.60796108 116.69072138 -92.06678072 108.39095385 -92.34711647 100.06481266 C-92.48185524 96.19536876 -92.66338602 92.34128817 -92.96142578 88.48071289 C-94.82543579 63.69092836 -94.82543579 63.69092836 -88.51620483 55.95425415 C-82.5999143 50.48881917 -75.42017648 46.90641095 -68.17242432 43.52377319 C-63.72713976 41.38862204 -59.67327453 38.77080985 -55.5625 36.0625 C-54.05646833 35.11435293 -52.54883712 34.1687381 -51.0390625 33.2265625 C-44.17061529 28.86897972 -37.44149165 24.29842251 -30.68954468 19.76348877 C-21.95611457 13.90307753 -13.11504788 8.26726644 -4.0859375 2.87109375 C-1.22376231 1.30310592 -1.22376231 1.30310592 0 0 Z " fill="#1B2538" transform="translate(683,448)"/>
<path d="M0 0 C4.69344415 0.85714055 7.0749635 3.78423736 10.25 7.125 C11.42126445 8.32868699 12.5944292 9.53052794 13.76953125 10.73046875 C14.3310791 11.30458496 14.89262695 11.87870117 15.47119141 12.47021484 C17.22040336 14.22054415 19.04250099 15.84668738 20.9375 17.4375 C26.77411481 22.38864547 32.04602172 27.96941943 37.42333984 33.40722656 C41.94813388 38.02975198 41.94813388 38.02975198 46.8984375 42.171875 C49.28039128 45.37732953 49.25738325 45.86746668 48.7890625 49.640625 C48.4303145 51.51625314 48.03995238 53.38600012 47.625 55.25 C47.42165039 56.27230713 47.21830078 57.29461426 47.00878906 58.34790039 C46.57646061 60.50608797 46.13152533 62.66178377 45.67480469 64.81494141 C45.05054534 67.76142746 44.45885687 70.71173387 43.8828125 73.66796875 C43.09915069 77.67522101 42.29851262 81.67851376 41.484375 85.6796875 C40.33580597 91.32815162 39.20369357 96.97973286 38.078125 102.6328125 C31.44036519 135.95441426 31.44036519 135.95441426 28.546875 149.44555664 C27.34964055 155.08416218 26.38579026 160.72570134 25.55200195 166.43017578 C24.51500001 171.2578991 21.95609569 173.36260287 18 176 C12.57161012 176.53219509 7.56437521 176.09666611 3 173 C1.94824219 171.18286133 1.94824219 171.18286133 1.109375 168.89453125 C0.77655518 167.99444336 0.44373535 167.09435547 0.10083008 166.16699219 C-0.44408081 164.59933105 -0.44408081 164.59933105 -1 163 C-1.41677002 161.8027832 -1.83354004 160.60556641 -2.26293945 159.37207031 C-3.72755446 155.11259578 -5.146613 150.83837067 -6.5625 146.5625 C-6.9485994 145.40154312 -6.9485994 145.40154312 -7.34249878 144.21713257 C-12.08140348 129.962532 -16.62508798 115.64949471 -21.08854675 101.30654907 C-23.54930514 93.40159147 -26.09686359 85.54323772 -28.859375 77.73828125 C-29.48968911 75.92972436 -30.11989654 74.12113029 -30.75 72.3125 C-31.24306641 70.94641602 -31.24306641 70.94641602 -31.74609375 69.55273438 C-32.05160156 68.66521484 -32.35710938 67.77769531 -32.671875 66.86328125 C-32.9512793 66.07219971 -33.23068359 65.28111816 -33.51855469 64.46606445 C-34.54647399 59.20084497 -32.85003862 55.20536947 -30.21875 50.7109375 C-29.63174316 49.69966797 -29.04473633 48.68839844 -28.43994141 47.64648438 C-27.79976074 46.56689453 -27.15958008 45.48730469 -26.5 44.375 C-25.84306152 43.25158203 -25.18612305 42.12816406 -24.50927734 40.97070312 C-17.30743646 28.68275846 -9.88195224 16.52582884 -2.43603516 4.38476562 C-1.01523851 2.09571538 -1.01523851 2.09571538 0 0 Z " fill="#1B2437" transform="translate(735,169)"/>
<path d="M0 0 C0.76441406 0.59554688 1.52882813 1.19109375 2.31640625 1.8046875 C8.21002672 6.24719646 14.27322508 10.40909263 20.37890625 14.5546875 C21.84928345 15.55459717 21.84928345 15.55459717 23.34936523 16.57470703 C26.85187409 18.95433218 30.35565674 21.33085449 33.87890625 23.6796875 C34.32714844 25.66844177 34.32714844 25.66844177 34.42578125 28.13842773 C34.46751465 29.06376816 34.50924805 29.98910858 34.55224609 30.94248962 C34.59019287 32.45015648 34.59019287 32.45015648 34.62890625 33.98828125 C34.65549316 35.0247731 34.68208008 36.06126495 34.70947266 37.12916565 C34.75542313 39.33064577 34.7917635 41.53234388 34.81933594 43.73413086 C34.858778 45.97408463 34.92675317 48.21373297 35.02441406 50.4519043 C35.87689518 70.02562468 35.87689518 70.02562468 31.08105469 75.53662109 C27.95878247 78.43281346 24.54905097 80.53876975 20.87890625 82.6796875 C19.27627905 83.904853 17.69036046 85.15246192 16.12890625 86.4296875 C15.46606125 86.92789001 14.80321625 87.42609253 14.12028503 87.93939209 C11.87192249 89.637512 11.87192249 89.637512 9.879776 91.50428772 C3.96089286 96.72160743 -0.30240503 97.65540598 -8.0625 97.36328125 C-9.57492531 97.3484243 -9.57492531 97.3484243 -11.11790466 97.33326721 C-14.30800827 97.29438144 -17.49454749 97.20660902 -20.68359375 97.1171875 C-22.85867393 97.08204025 -25.03380856 97.05010726 -27.20898438 97.02148438 C-32.51421717 96.94470616 -37.81740079 96.82788309 -43.12109375 96.6796875 C-43.12109375 96.0196875 -43.12109375 95.3596875 -43.12109375 94.6796875 C-43.73984375 94.4321875 -44.35859375 94.1846875 -44.99609375 93.9296875 C-47.47178062 92.47340111 -48.07234377 91.30156244 -49.12109375 88.6796875 C-49.78109375 88.6796875 -50.44109375 88.6796875 -51.12109375 88.6796875 C-52.34765625 87.39453125 -52.34765625 87.39453125 -53.74609375 85.6171875 C-56.5608263 82.21204764 -59.61020206 79.3794116 -62.99609375 76.55078125 C-63.69734375 75.93332031 -64.39859375 75.31585938 -65.12109375 74.6796875 C-66.13558594 73.84614746 -67.15007813 73.01260742 -68.1953125 72.15380859 C-72.06207833 68.24414988 -72.05611036 64.52131807 -72.05859375 59.22265625 C-72.0738208 58.32025711 -72.08904785 57.41785797 -72.10473633 56.4881134 C-72.12627927 54.58455425 -72.1320682 52.68075928 -72.12304688 50.77709961 C-72.12110445 47.88313509 -72.20426664 44.99984973 -72.29296875 42.10742188 C-72.4661882 28.70546576 -72.4661882 28.70546576 -69.00219727 23.48852539 C-66.48255643 21.19928383 -64.02469572 19.44418614 -61.12109375 17.6796875 C-59.42253358 16.38153271 -57.7332758 15.07100371 -56.05859375 13.7421875 C-55.32511719 13.19691406 -54.59164062 12.65164063 -53.8359375 12.08984375 C-51.99872502 10.77394622 -51.99872502 10.77394622 -51.12109375 8.6796875 C-48.99609375 8.22265625 -48.99609375 8.22265625 -46.12109375 7.8671875 C-40.85085718 7.07321354 -35.89490789 5.84779803 -30.80859375 4.3046875 C-30.0928418 4.0888501 -29.37708984 3.8730127 -28.63964844 3.65063477 C-27.18776223 3.21184755 -25.7361015 2.77231353 -24.28466797 2.33203125 C-20.82277321 1.28822818 -17.35322537 0.27876492 -13.87109375 -0.6953125 C-12.09992187 -1.20191406 -12.09992187 -1.20191406 -10.29296875 -1.71875 C-6.10807227 -2.51243726 -3.62175953 -2.25442858 0 0 Z " fill="#1B2538" transform="translate(766.12109375,360.3203125)"/>
<path d="M0 0 C33.39591877 -0.27220908 66.64577911 0.28999358 100 2 C99.60177032 2.46248642 99.20354065 2.92497284 98.79324341 3.401474 C96.15635744 6.46965307 93.5239447 9.53534817 90.9921875 12.69140625 C90.48647217 13.31901855 89.98075684 13.94663086 89.4597168 14.59326172 C88.93676025 15.24311035 88.41380371 15.89295898 87.875 16.5625 C83.07092937 22.50815256 78.166498 28.35127371 73.16723633 34.13330078 C70.39364046 37.34899743 67.69043393 40.60035377 65.0625 43.9375 C61.73175815 48.15966446 58.23027217 52.20654616 54.6875 56.25 C49.89594322 61.72191216 45.33556693 67.32100752 40.88793945 73.07446289 C37.50310227 77.42745896 33.90290612 81.5241412 30.171875 85.5859375 C27.11511709 88.9835569 24.25799762 92.53062663 21.3828125 96.08203125 C18.79243863 99.25417761 16.15305339 102.38032918 13.5 105.5 C5.83089589 114.53045992 -1.62116371 123.73121654 -9 133 C-14.40508043 132.38696372 -18.92439045 130.55619307 -23.875 128.4375 C-24.65875 128.10814453 -25.4425 127.77878906 -26.25 127.43945312 C-28.16908756 126.63203214 -30.0848865 125.81680231 -32 125 C-32.18844878 119.87821657 -31.58858567 115.6579591 -30.20703125 110.73046875 C-30.02071136 110.05634949 -29.83439148 109.38223022 -29.64242554 108.68768311 C-29.04079695 106.51852821 -28.42676148 104.35310756 -27.8125 102.1875 C-27.39473957 100.68912009 -26.97783216 99.19050209 -26.56176758 97.69165039 C-25.55826165 94.08352842 -24.54554714 90.47808887 -23.52844238 86.8737793 C-22.40697196 82.89720941 -21.29702988 78.91741466 -20.1875 74.9375 C-19.99381836 74.2451123 -19.80013672 73.55272461 -19.60058594 72.83935547 C-18.17291331 67.70594127 -16.8614154 62.54812776 -15.58422852 57.37548828 C-11.60623914 41.27887351 -7.3144673 25.27802591 -2.68261719 9.35742188 C-1.7801198 6.24064263 -0.8902933 3.12028406 0 0 Z " fill="#D6482A" transform="translate(805,223)"/>
<path d="M0 0 C1.09876465 0.43006348 2.1975293 0.86012695 3.32958984 1.30322266 C9.33763586 3.56519118 15.50908768 5.29122808 21.66796875 7.08984375 C22.99310989 7.4792551 24.31816629 7.8689549 25.6431427 8.25892639 C29.11762886 9.28083409 32.59310253 10.29933931 36.06884766 11.31695557 C41.61192066 12.94049853 47.15340251 14.56946545 52.6950016 16.19803047 C54.60702682 16.75944965 56.51947197 17.31943807 58.43193054 17.87937927 C65.19813137 19.86420339 71.94912407 21.89026655 78.68354797 23.98048401 C83.11548379 25.34291271 87.55892122 26.66767636 92 28 C92 35.92 92 43.84 92 52 C83.6513916 54.45985783 75.30143121 56.9145146 66.94506836 59.34790039 C62.83818059 60.54410493 58.73205879 61.74292819 54.62597656 62.94189453 C52.03181266 63.69890412 49.43741986 64.45509764 46.84277344 65.21044922 C43.1154903 66.29577171 39.3891583 67.38431608 35.66329956 68.47451782 C34.20633856 68.90030961 32.74909384 69.32513207 31.29153442 69.74887085 C22.55103886 72.29069981 13.88689131 74.98050139 5.27099609 77.91894531 C1.40210235 79.19760343 -2.49554714 80.28204353 -6.4375 81.30859375 C-9.86879696 82.23441625 -13.23980463 83.33236316 -16.61328125 84.44921875 C-19.58136661 85.13416153 -21.96164548 85.32567983 -25 85 C-27.28125 83.41796875 -27.28125 83.41796875 -29.5 81.1875 C-33.44965852 77.40364424 -37.48526628 73.95561175 -41.8125 70.625 C-47.69579317 66.06850531 -53.40810691 61.34444807 -59.0625 56.5078125 C-62.02240236 53.98087458 -65.00587785 51.48619071 -68 49 C-65.3136741 45.4327081 -62.57799593 42.68117276 -59.0625 39.9375 C-54.70399034 36.44953155 -50.56973363 32.81949307 -46.5 29 C-41.72216544 24.52478274 -36.80151216 20.32399155 -31.6953125 16.22265625 C-28.7986427 13.83395318 -26.02099825 11.34566053 -23.25 8.8125 C-22.33734375 7.98878906 -21.4246875 7.16507812 -20.484375 6.31640625 C-18.04581727 4.10463622 -18.04581727 4.10463622 -16.140625 1.96484375 C-11.07655395 -3.32831623 -6.61101844 -2.11587708 0 0 Z " fill="#1B2538" transform="translate(579,369)"/>
<path d="M0 0 C4.58300125 -0.14505993 9.16541363 -0.23399681 13.75 -0.3125 C15.70292969 -0.3753418 15.70292969 -0.3753418 17.6953125 -0.43945312 C18.94570313 -0.45556641 20.19609375 -0.47167969 21.484375 -0.48828125 C22.63647461 -0.51446533 23.78857422 -0.54064941 24.97558594 -0.56762695 C28 0 28 0 30.21069336 2.06396484 C32.25035452 5.41080139 33.75915735 8.81417818 35.14453125 12.46484375 C35.57495224 13.56566284 35.57495224 13.56566284 36.0140686 14.6887207 C36.95542395 17.10175735 37.88421712 19.5194075 38.8125 21.9375 C39.80104932 24.48847397 40.79202002 27.03849937 41.78303528 29.58851624 C42.46904132 31.35463216 43.15391134 33.12118973 43.83769226 34.88816833 C46.27908596 41.18689916 48.78458163 47.45747554 51.3203125 53.71875 C52.35776841 56.2937465 53.3942802 58.86912106 54.43051147 61.4446106 C55.09817101 63.09746098 55.7697015 64.74875334 56.44522095 66.39840698 C57.38991814 68.70792454 58.31946384 71.02302963 59.24609375 73.33984375 C59.52659576 74.0143457 59.80709778 74.68884766 60.09609985 75.38378906 C61.81575735 79.736477 62.36962924 83.33545934 62 88 C60.75 90.1875 60.75 90.1875 59 92 C58.35675781 92.67160156 57.71351563 93.34320312 57.05078125 94.03515625 C54.48544514 96.49299256 51.86747963 98.85971384 49.16015625 101.16015625 C46.77611341 103.19068822 44.44921806 105.27629292 42.125 107.375 C41.28066406 108.13683594 40.43632813 108.89867187 39.56640625 109.68359375 C38.71949219 110.44800781 37.87257813 111.21242188 37 112 C35.35429756 113.4793123 33.70846465 114.95847946 32.0625 116.4375 C26.69016616 121.27174635 21.34351694 126.1339456 16 131 C11.92943605 129.34817695 9.02124541 126.46844434 5.875 123.5 C5.30241455 122.96608643 4.7298291 122.43217285 4.13989258 121.88208008 C-0.25326808 117.76299489 -4.50740986 113.51584412 -8.73828125 109.23046875 C-10.76590294 107.23086256 -12.83782028 105.35144731 -15 103.5 C-18.20153934 100.72402315 -21.35254608 97.90554525 -24.4375 95 C-25.28183594 94.21625 -26.12617187 93.4325 -26.99609375 92.625 C-29.59298157 89.22322882 -29.79752367 87.28198954 -30 83 C-29.29372876 79.66924443 -28.15709831 76.53601493 -26.984375 73.34375 C-26.65731064 72.41558472 -26.33024628 71.48741943 -25.99327087 70.53112793 C-24.92670582 67.51536115 -23.83872783 64.50782865 -22.75 61.5 C-22.0114175 59.42626484 -21.27420133 57.35204255 -20.53833008 55.27734375 C-19.06487927 51.12993357 -17.58316376 46.98562915 -16.09423828 42.84375 C-14.23430458 37.66489966 -12.40441253 32.47614243 -10.58984375 27.28125 C-9.85191346 25.17442302 -9.11351407 23.06776124 -8.37487793 20.96118164 C-7.92103912 19.66631849 -7.4678202 18.37123789 -7.01525879 17.07592773 C-6.39311271 15.2992008 -5.76505805 13.52454615 -5.13671875 11.75 C-4.79342529 10.77546875 -4.45013184 9.8009375 -4.09643555 8.796875 C-2.9062421 5.7608349 -1.49804961 2.89492668 0 0 Z " fill="#1C2638" transform="translate(732,476)"/>
<path d="M0 0 C2.6772558 1.08478071 4.94260113 2.61123362 7.3125 4.25 C8.72238555 5.17749496 10.13255367 6.10456048 11.54296875 7.03125 C12.27306152 7.51980469 13.0031543 8.00835937 13.75537109 8.51171875 C17.50070794 10.99503106 21.31734572 13.36385939 25.125 15.75 C33.87904243 21.27670449 42.61236769 26.8360302 51.34375 32.3984375 C55.21651999 34.86550541 59.09174498 37.32865547 62.96875 39.7890625 C63.94739014 40.41055176 64.92603027 41.03204102 65.93432617 41.67236328 C67.79076641 42.85120047 69.64766608 44.02931462 71.50512695 45.20654297 C77.05340997 48.7315819 82.54668547 52.32973829 88 56 C84.44745191 58.95294289 80.80430471 61.45500489 76.859375 63.85546875 C76.29172424 64.20257401 75.72407349 64.54967926 75.13922119 64.90730286 C73.34476436 66.00393768 71.54757146 67.09597949 69.75 68.1875 C67.93859261 69.2904405 66.12779324 70.39435609 64.31793213 71.49983215 C62.68683886 72.49567423 61.05391324 73.48851323 59.42089844 74.48120117 C57.13714266 75.78845721 57.13714266 75.78845721 56 77 C48.63356126 76.60161097 42.20848031 74.66395283 35.25 72.3125 C27.16503145 69.64757871 19.07564122 67.0979246 10.875 64.8125 C4.88461114 63.13774953 -1.05012948 61.38345995 -6.9375 59.375 C-13.89749226 57.00755376 -20.91738701 54.96319763 -28 53 C-31.20038874 52.10918105 -34.40041571 51.217085 -37.60009766 50.32373047 C-39.83104958 49.70119139 -42.06248034 49.08036524 -44.29443359 48.46142578 C-45.33164551 48.17251465 -46.36885742 47.88360352 -47.4375 47.5859375 C-48.36433594 47.3286084 -49.29117188 47.0712793 -50.24609375 46.80615234 C-53.19160805 45.94391048 -56.09069458 44.97707868 -59 44 C-61.08918717 43.3452794 -63.18043145 42.6970953 -65.2734375 42.0546875 C-66.42714844 41.70019531 -67.58085938 41.34570312 -68.76953125 40.98046875 C-69.95933594 40.61566406 -71.14914062 40.25085938 -72.375 39.875 C-73.58800781 39.50246094 -74.80101562 39.12992187 -76.05078125 38.74609375 C-79.03365859 37.83009205 -82.01680313 36.91496052 -85 36 C-85 28.41 -85 20.82 -85 13 C-77.01875253 11.30700811 -69.08147652 9.80328733 -61 8.6875 C-50.98962934 7.30464214 -40.99735537 5.81300598 -31.00805664 4.2862854 C-29.21236234 4.01230012 -27.4164632 3.73965391 -25.62036133 3.46835327 C-23.0758136 3.08379641 -20.53197822 2.69482702 -17.98828125 2.3046875 C-17.21212967 2.18812302 -16.43597809 2.07155853 -15.63630676 1.95146179 C-1.61126422 -0.21973438 -1.61126422 -0.21973438 0 0 Z " fill="#1B2539" transform="translate(911,393)"/>
<path d="M0 0 C3.90761831 2.37533066 7.42628574 5.14768214 10.9921875 8.00390625 C12.6097769 9.28108886 14.22828386 10.55711011 15.84765625 11.83203125 C16.65895996 12.47205078 17.47026367 13.11207031 18.30615234 13.77148438 C21.76921932 16.48152485 25.28026013 19.1244182 28.8046875 21.75390625 C29.4538916 22.23891602 30.1030957 22.72392578 30.77197266 23.22363281 C32.08049862 24.20039691 33.38941669 25.17663595 34.69873047 26.15234375 C55.97937467 42.01447539 55.97937467 42.01447539 62.23461914 47.05004883 C64.51237115 48.83130846 66.78290893 50.27524144 69.33398438 51.63183594 C74.32914922 54.50402882 78.77343074 57.4385709 80.41473389 63.21652222 C81.44147435 70.73430101 80.95429069 78.26649092 80.5546875 85.81640625 C80.48437719 88.12676424 80.42051369 90.43732794 80.36328125 92.74804688 C80.20984057 98.37952609 79.97639427 104.00325164 79.6796875 109.62890625 C78.09894115 109.32051778 76.51861977 109.00995051 74.93847656 108.69848633 C74.05838928 108.52577713 73.178302 108.35306793 72.27154541 108.17512512 C68.60109196 107.40159856 65.0270175 106.37172935 61.4296875 105.31640625 C55.69728613 103.67969685 49.95856459 102.19078581 44.13769531 100.90209961 C41.41421786 100.29914442 38.69780884 99.66905115 35.98046875 99.0390625 C31.90150234 98.10175959 27.81360243 97.26271341 23.70344543 96.47370911 C-0.59052514 91.72969104 -0.59052514 91.72969104 -4.453125 86.19921875 C-5.88530927 83.17563232 -6.4312376 80.15950225 -6.86621094 76.84179688 C-7.6569239 72.98855908 -9.35424684 69.5005561 -10.91162109 65.90332031 C-12.35673797 62.54423754 -13.70847129 59.15987599 -15.0390625 55.75390625 C-15.49667969 54.5834375 -15.95429687 53.41296875 -16.42578125 52.20703125 C-17.35546875 49.82161458 -18.28515625 47.43619792 -19.21484375 45.05078125 C-21.84080154 38.33424696 -24.54279253 31.66805792 -27.41992188 25.0546875 C-28.3203125 22.62890625 -28.3203125 22.62890625 -28.3203125 19.62890625 C-26.27865253 17.78657995 -24.26591606 16.14426695 -22.0703125 14.50390625 C-21.4400415 14.02542236 -20.80977051 13.54693848 -20.16040039 13.05395508 C-18.85617885 12.064619 -17.54958678 11.07840068 -16.24072266 10.09521484 C-14.42687999 8.71027472 -12.65705437 7.28532986 -10.89453125 5.8359375 C-9.84901224 4.99602664 -8.80344201 4.15617954 -7.7578125 3.31640625 C-6.82839844 2.55714844 -5.89898438 1.79789062 -4.94140625 1.015625 C-2.3203125 -0.37109375 -2.3203125 -0.37109375 0 0 Z " fill="#1C2538" transform="translate(805.3203125,454.37109375)"/>
<path d="M0 0 C5.38880618 10.07906342 10.65516745 20.20381856 15.73193359 30.44335938 C18.48123358 35.98642243 21.23808755 41.52571262 24 47.0625 C24.30660553 47.67723175 24.61321106 48.2919635 24.92910767 48.92532349 C28.90178418 56.88340819 32.9571551 64.78348653 37.19140625 72.60546875 C40.59858375 79.00036561 43.7854584 85.50676853 47 92 C47.57105469 93.10214844 48.14210938 94.20429688 48.73046875 95.33984375 C50 98 50 98 50 100 C49.04746338 100.3853894 49.04746338 100.3853894 48.07568359 100.77856445 C45.17443393 101.95403885 42.27471103 103.13323543 39.375 104.3125 C38.37597656 104.71662109 37.37695312 105.12074219 36.34765625 105.53710938 C32.32264637 107.17643459 28.42007071 108.77065105 24.6015625 110.85546875 C22 112 22 112 19.39453125 112.11328125 C15.79412045 110.43935453 14.49622425 107.55202374 12.6875 104.1875 C12.27290527 103.45047852 11.85831055 102.71345703 11.43115234 101.95410156 C10.48312221 100.26833778 9.54186678 98.57875332 8.60595703 96.88623047 C6.50758519 93.11503073 4.35939195 89.37318661 2.21122742 85.63018799 C1.87541153 85.04501404 1.53959564 84.45984009 1.19360352 83.85693359 C0.85370392 83.2646698 0.51380432 82.67240601 0.16360474 82.06219482 C-1.57568262 79.02742381 -3.30739739 75.98834356 -5.0390625 72.94921875 C-8.91615927 66.14594493 -12.80018829 59.34665348 -16.68725586 52.54907227 C-19.2065955 48.14227667 -21.72145653 43.73299748 -24.23046875 39.3203125 C-24.76704102 38.37792725 -25.30361328 37.43554199 -25.85644531 36.46459961 C-26.87408659 34.67712748 -27.89046457 32.88893522 -28.90527344 31.09985352 C-31.50533183 26.53618109 -34.18594742 22.07249188 -37.10180664 17.70239258 C-38 16 -38 16 -38 13 C-31.16672773 10.14580765 -24.23332543 7.62943199 -17.24243164 5.19482422 C-16.20590454 4.83348389 -16.20590454 4.83348389 -15.1484375 4.46484375 C-14.12508301 4.1088208 -14.12508301 4.1088208 -13.08105469 3.74560547 C-10.92618834 2.97355458 -8.79693809 2.14704875 -6.6640625 1.31640625 C-3 0 -3 0 0 0 Z " fill="#1B2537" transform="translate(677,246)"/>
<path d="M0 0 C1.57587891 0.44859375 1.57587891 0.44859375 3.18359375 0.90625 C5.04177734 1.47859375 5.04177734 1.47859375 6.9375 2.0625 C7.6814502 2.28679687 8.42540039 2.51109375 9.19189453 2.7421875 C23.82125621 7.16039131 23.82125621 7.16039131 30.58203125 9.9375 C37.27315092 12.6631511 44.14072831 14.86838313 51 17.125 C52.32366222 17.56286545 53.64723046 18.00101507 54.97070312 18.43945312 C57.5065187 19.27915221 60.04297381 20.11682095 62.57983398 20.95336914 C65.31857173 21.85805071 68.05458758 22.77005285 70.7890625 23.6875 C75.25896273 25.17990446 79.75288638 26.59213547 84.25 28 C91.50527315 30.2800456 98.73546113 32.61869439 105.9375 35.0625 C105.4020474 38.89899026 104.65904669 42.12535056 103 45.625 C101.90679707 47.95688914 100.92792071 50.09620903 100.22241211 52.57885742 C98.9375 55.0625 98.9375 55.0625 96.44726562 56.25683594 C95.42310547 56.51754883 94.39894531 56.77826172 93.34375 57.046875 C91.67505859 57.48966797 91.67505859 57.48966797 89.97265625 57.94140625 C88.80605469 58.22886719 87.63945313 58.51632812 86.4375 58.8125 C84.1351294 59.41035314 81.83303159 60.00925813 79.53125 60.609375 C78.50708984 60.86557617 77.48292969 61.12177734 76.42773438 61.38574219 C73.96255257 61.96789255 73.96255257 61.96789255 71.9375 63.0625 C67.4912226 63.57699008 65.44792138 63.38338771 61.61328125 60.97265625 C60.4786602 60.03964902 59.35805106 59.08941188 58.25 58.125 C57.01135969 57.10042139 55.77176223 56.07699888 54.53125 55.0546875 C53.92152344 54.54389648 53.31179688 54.03310547 52.68359375 53.50683594 C50.26499391 51.5062156 47.7675438 49.62401435 45.25 47.75 C44.27933594 47.02683594 43.30867187 46.30367188 42.30859375 45.55859375 C41.18514849 44.72622138 40.06142567 43.89422357 38.9375 43.0625 C38.25059082 42.55348145 37.56368164 42.04446289 36.85595703 41.52001953 C28.13241364 35.05988199 19.37826866 28.64624141 10.5625 22.3125 C3.23432649 17.0459753 -3.95636667 11.62436761 -11.0625 6.0625 C-8.74422957 0.46001314 -5.96040727 -1.72380124 0 0 Z " fill="#1B2538" transform="translate(828.0625,436.9375)"/>
<path d="M0 0 C0.99 1.485 0.99 1.485 2 3 C-5.22191994 6.9734048 -12.49121031 10.83836922 -19.8125 14.625 C-28.43081885 19.10235757 -36.98831145 23.67735444 -45.50146484 28.35131836 C-50.53108801 31.11165225 -55.57201563 33.84793868 -60.6328125 36.55078125 C-71.46715056 42.3373911 -82.2046781 48.15929808 -92.67236328 54.58886719 C-95.72480478 56.43941385 -98.79739364 58.25540146 -101.87109375 60.0703125 C-102.79144661 60.61393936 -102.79144661 60.61393936 -103.73039246 61.16854858 C-106.23489352 62.6473945 -108.73972918 64.12566749 -111.24557495 65.60223389 C-113.00565834 66.6397314 -114.76463841 67.67907725 -116.5234375 68.71875 C-117.55388184 69.32654297 -118.58432617 69.93433594 -119.64599609 70.56054688 C-121.87590785 71.79778404 -121.87590785 71.79778404 -123 73 C-123.10622474 74.5402587 -123.1847567 76.08246188 -123.25 77.625 C-123.72750299 82.84022794 -125.18629413 86.36927497 -129 90 C-134.01332216 93.68806135 -138.46779094 93.67420691 -144.53515625 93.546875 C-149.89661976 92.70064626 -152.82818656 90.30460395 -156 86 C-158.15596502 81.68806995 -158.51254831 77.78378424 -158 73 C-155.65815814 68.49645796 -152.54707265 64.41865567 -148 62 C-142.39845163 60.59505139 -137.27305909 60.4247851 -132 63 C-129.125 65.125 -129.125 65.125 -127 67 C-122.73253436 65.46210201 -118.97509025 63.29944733 -115.125 60.9375 C-114.48022705 60.54699463 -113.8354541 60.15648926 -113.17114258 59.75415039 C-110.40054117 58.07584074 -107.63555451 56.38841872 -104.87158203 54.69921875 C-102.81228198 53.44189191 -100.74996717 52.18962236 -98.6875 50.9375 C-98.0476416 50.54361084 -97.4077832 50.14972168 -96.74853516 49.74389648 C-92.22549398 47 -92.22549398 47 -90 47 C-90.55429687 46.26394531 -91.10859375 45.52789062 -91.6796875 44.76953125 C-92.76636719 43.30580078 -92.76636719 43.30580078 -93.875 41.8125 C-94.59429688 40.84957031 -95.31359375 39.88664062 -96.0546875 38.89453125 C-97.80596599 36.28871325 -98.97459794 33.95207856 -100 31 C-91.69638783 27.80220327 -83.42002124 24.73672526 -74.88671875 22.19921875 C-68.4604715 20.25385218 -62.11308984 18.05121211 -55.75195312 15.90478516 C-51.29110557 14.40542038 -46.83424085 12.932016 -42.31640625 11.61328125 C-37.81563035 10.28482281 -33.38294415 8.78856296 -28.9453125 7.265625 C-27.49219717 6.76950294 -26.03907205 6.27340953 -24.5859375 5.77734375 C-22.33930376 5.00985097 -20.09397779 4.23921285 -17.8515625 3.45947266 C-15.65682888 2.69767606 -13.45790063 1.94929254 -11.2578125 1.203125 C-10.58799347 0.96676331 -9.91817444 0.73040161 -9.22805786 0.48687744 C-3.14522801 -1.5528587 -3.14522801 -1.5528587 0 0 Z " fill="#1E283B" transform="translate(672,429)"/>
<path d="M0 0 C0.66 0 1.32 0 2 0 C2.23376694 4.49911447 2.37490714 8.99665691 2.5 13.5 C2.60054687 15.40265625 2.60054687 15.40265625 2.703125 17.34375 C2.89646525 26.62408194 2.89646525 26.62408194 0.4296875 30.41015625 C-1.61538683 32.42759444 -3.76346853 34.19957216 -6 36 C-7.12269524 37.23470427 -8.21700201 38.49582577 -9.28125 39.78125 C-14.51271746 45.85497186 -20.32736651 51.38330351 -26.02978516 57.00927734 C-31.25675956 62.17248769 -36.38221491 67.3454046 -41.15820312 72.93554688 C-45.67501287 77.99839725 -50.62659758 82.67407845 -55.45703125 87.43652344 C-60.55682917 92.47102745 -65.54273688 97.53225312 -70.203125 102.98046875 C-74.74712768 108.08753263 -79.74940097 112.782992 -84.6171875 117.578125 C-89.6323606 122.54756704 -94.44674549 127.6024334 -99 133 C-101.49361571 131.79618552 -103.68143083 130.54571278 -106 129 C-104.29957397 124.85584795 -101.3584817 121.75620163 -98.4375 118.4375 C-97.34276361 117.17793997 -96.24902202 115.91751466 -95.15625 114.65625 C-94.61742187 114.03492188 -94.07859375 113.41359375 -93.5234375 112.7734375 C-91.4521603 110.36225841 -89.44078991 107.90532091 -87.4375 105.4375 C-84.17221433 101.41641584 -80.8543221 97.44663557 -77.5 93.5 C-71.86206067 86.86236372 -66.34635222 80.12941087 -60.86328125 73.36328125 C-56.14455294 67.56017732 -51.32411561 61.85755776 -46.44213867 56.19213867 C-42.66383627 51.79883363 -38.98628921 47.3323746 -35.3359375 42.83203125 C-32.64802858 39.5732788 -29.88948309 36.38121241 -27.125 33.1875 C-23.08283622 28.50905782 -19.17215952 23.75436011 -15.375 18.875 C-11.77493577 14.25341022 -8.15281928 9.65478459 -4.4375 5.125 C-3.63183594 4.13757813 -2.82617188 3.15015625 -1.99609375 2.1328125 C-1.33738281 1.42898437 -0.67867187 0.72515625 0 0 Z " fill="#D24729" transform="translate(908,232)"/>
<path d="M0 0 C3.63 0 7.26 0 11 0 C11.40839111 0.74161377 11.81678223 1.48322754 12.23754883 2.24731445 C13.75984018 5.00594068 15.28669162 7.7619773 16.81665039 10.51635742 C17.47701028 11.70740124 18.13556024 12.89945047 18.79223633 14.0925293 C19.73819467 15.81043548 20.69128274 17.52440958 21.64453125 19.23828125 C22.21534424 20.26993408 22.78615723 21.30158691 23.37426758 22.36450195 C24.76465247 24.61847476 26.02983138 26.25946693 28 28 C28.4846875 27.14019531 28.969375 26.28039062 29.46875 25.39453125 C42.34023489 2.65976511 42.34023489 2.65976511 45 0 C46.68608966 -0.07205511 48.37500659 -0.08386068 50.0625 -0.0625 C50.98160156 -0.05347656 51.90070312 -0.04445313 52.84765625 -0.03515625 C53.55792969 -0.02355469 54.26820313 -0.01195312 55 0 C60.36128284 29.52279753 60.36128284 29.52279753 60 40 C57.03 40 54.06 40 51 40 C49.68 30.43 48.36 20.86 47 11 C42.52447863 19.04556881 42.52447863 19.04556881 38.05541992 27.09472656 C37.49443604 28.09987305 36.93345215 29.10501953 36.35546875 30.140625 C35.78465576 31.16704102 35.21384277 32.19345703 34.62573242 33.25097656 C31.76935911 38.08094556 31.76935911 38.08094556 30 40 C26.3125 40.25 26.3125 40.25 23 40 C22.41992188 38.88882813 21.83984375 37.77765625 21.2421875 36.6328125 C17.35470626 29.22034828 13.47610249 21.86332724 8.99609375 14.78515625 C8 13 8 13 8 11 C7.34 11 6.68 11 6 11 C6.061875 12.258125 6.12375 13.51625 6.1875 14.8125 C6.22431073 23.2912373 4.43648202 31.67182448 3 40 C0.03 40 -2.94 40 -6 40 C-5.57255213 32.08484455 -4.39942121 24.53377317 -2.765625 16.78125 C-1.63911093 11.21764991 -0.80524962 5.61780028 0 0 Z " fill="#212B3E" transform="translate(720,664)"/>
<path d="M0 0 C9 0 9 0 11.57421875 1.546875 C12.27160156 2.27390625 12.96898437 3.0009375 13.6875 3.75 C14.51507812 4.56726563 15.34265625 5.38453125 16.1953125 6.2265625 C17.12085938 7.14179687 18.04640625 8.05703125 19 9 C21.32091333 11.08105382 23.68897306 13.10435084 26.0625 15.125 C26.61574951 15.60291992 27.16899902 16.08083984 27.73901367 16.57324219 C32.38150725 20.55852959 37.15313375 24.23021514 42 28 C42 18.76 42 9.52 42 0 C45.3 0 48.6 0 52 0 C52 13.2 52 26.4 52 40 C40.53720113 40 40.53720113 40 34.75 34.25 C33.46959874 33.05898275 32.18832622 31.86890155 30.90625 30.6796875 C30.26429688 30.06963867 29.62234375 29.45958984 28.9609375 28.83105469 C25.8206028 25.89872024 22.53390666 23.14412276 19.25 20.375 C16.06342338 17.67001301 12.95910485 14.95910485 10 12 C9.67 21.24 9.34 30.48 9 40 C6.03 40 3.06 40 0 40 C0 26.8 0 13.6 0 0 Z " fill="#212B3F" transform="translate(648,664)"/>
<path d="M0 0 C0.495 1.485 0.495 1.485 1 3 C1.99 3.33 2.98 3.66 4 4 C-0.16712988 7.6060114 -4.61443474 10.09804441 -9.4375 12.6875 C-11.84627901 14.02015237 -14.250805 15.36027272 -16.65527344 16.70068359 C-18.16149011 17.53534469 -19.6722347 18.36191485 -21.18847656 19.17822266 C-28.96776609 22.98000515 -28.96776609 22.98000515 -33.90625 29.5390625 C-34.10588503 32.11183046 -34.10588503 32.11183046 -33.95703125 34.63671875 C-34.01920583 38.05632079 -35.44232943 39.87022103 -37.453125 42.52734375 C-42.657897 47.48239184 -47.59607283 47.69250109 -54.53515625 47.546875 C-59.89661976 46.70064626 -62.82818656 44.30460395 -66 40 C-68.15596502 35.68806995 -68.51254831 31.78378424 -68 27 C-65.65815814 22.49645796 -62.54707265 18.41865567 -58 16 C-52.39845163 14.59505139 -47.27305909 14.4247851 -42 17 C-39.125 19.125 -39.125 19.125 -37 21 C-32.77498752 19.47518347 -29.05957587 17.34322564 -25.25 15 C-23.93144029 14.19847683 -22.61240987 13.39772764 -21.29296875 12.59765625 C-20.60122559 12.17758301 -19.90948242 11.75750977 -19.19677734 11.32470703 C-15.33733041 8.99737217 -11.44960342 6.71824029 -7.5625 4.4375 C-6.8106543 3.99599609 -6.05880859 3.55449219 -5.28417969 3.09960938 C-3.52312829 2.06582372 -1.76161735 1.03282095 0 0 Z " fill="#166397" transform="translate(582,475)"/>
<path d="M0 0 C11.12414667 0 11.12414667 0 15.09448242 3.91113281 C15.85208862 4.72855957 15.85208862 4.72855957 16.625 5.5625 C17.73771035 6.67374903 18.85098913 7.78442918 19.96484375 8.89453125 C20.48804199 9.43287598 21.01124023 9.9712207 21.55029297 10.52587891 C23.35350232 12.35945554 25.24449076 14.06605866 27.1875 15.75 C27.78949219 16.27464844 28.39148438 16.79929687 29.01171875 17.33984375 C32.29957299 20.08510515 35.69463742 22.69513622 39.09375 25.30078125 C39.7228125 25.86152344 40.351875 26.42226563 41 27 C41 27.66 41 28.32 41 29 C41.66 29 42.32 29 43 29 C43 19.43 43 9.86 43 0 C45.97 0 48.94 0 52 0 C52 13.2 52 26.4 52 40 C42 40 42 40 39.00390625 38.12890625 C38.19824219 37.28199219 37.39257812 36.43507813 36.5625 35.5625 C35.64726563 34.64726563 34.73203125 33.73203125 33.7890625 32.7890625 C32.86867188 31.86867188 31.94828125 30.94828125 31 30 C28.36893071 27.78164746 25.68947845 25.63787326 22.99609375 23.49609375 C18.5524726 19.79404171 14.29897574 15.86907817 10 12 C9.67 21.24 9.34 30.48 9 40 C6.03 40 3.06 40 0 40 C0 26.8 0 13.6 0 0 Z " fill="#1D273B" transform="translate(853,664)"/>
<path d="M0 0 C0.81276398 0.0028299 1.62552795 0.00565979 2.46292114 0.00857544 C5.04053925 0.01970631 7.61780069 0.04479735 10.1953125 0.0703125 C11.95051579 0.08035149 13.70572456 0.08947573 15.4609375 0.09765625 C19.74753176 0.11962235 24.0338618 0.15410272 28.3203125 0.1953125 C28.3203125 2.1753125 28.3203125 4.1553125 28.3203125 6.1953125 C27.28100586 6.20989502 26.24169922 6.22447754 25.17089844 6.23950195 C21.30906035 6.29754431 17.44780174 6.3747763 13.58642578 6.45776367 C11.91627417 6.4909852 10.24601104 6.51902584 8.57568359 6.54174805 C6.17236887 6.57534584 3.77007351 6.62766196 1.3671875 6.68359375 C0.62225037 6.68998367 -0.12268677 6.6963736 -0.89019775 6.70295715 C-4.00374043 6.79094663 -6.35778905 7.03116813 -9.15161133 8.45581055 C-11.05478843 10.62231268 -11.18274005 11.68050687 -11.17578125 14.5390625 C-11.17642578 15.37308594 -11.17707031 16.20710937 -11.17773438 17.06640625 C-11.15775391 17.93394531 -11.13777344 18.80148437 -11.1171875 19.6953125 C-11.12427734 20.56285156 -11.13136719 21.43039062 -11.13867188 22.32421875 C-11.29979044 26.95476317 -11.29979044 26.95476317 -9.27758789 30.90429688 C-6.09312963 33.47716399 -3.60690632 33.37993618 0.421875 33.51171875 C2.23945312 33.57456055 2.23945312 33.57456055 4.09375 33.63867188 C5.36476563 33.67798828 6.63578125 33.71730469 7.9453125 33.7578125 C9.2240625 33.80099609 10.5028125 33.84417969 11.8203125 33.88867188 C14.98686598 33.99501136 18.15350003 34.09704083 21.3203125 34.1953125 C21.3203125 30.5653125 21.3203125 26.9353125 21.3203125 23.1953125 C16.0403125 23.1953125 10.7603125 23.1953125 5.3203125 23.1953125 C5.3203125 21.5453125 5.3203125 19.8953125 5.3203125 18.1953125 C13.5703125 18.1953125 21.8203125 18.1953125 30.3203125 18.1953125 C30.3409375 21.6396875 30.3615625 25.0840625 30.3828125 28.6328125 C30.3919165 29.72005615 30.40102051 30.8072998 30.41040039 31.92749023 C30.41289795 32.77770752 30.41539551 33.6279248 30.41796875 34.50390625 C30.42320557 35.37845459 30.42844238 36.25300293 30.43383789 37.15405273 C30.3203125 39.1953125 30.3203125 39.1953125 29.3203125 40.1953125 C26.68653131 40.32134901 24.08048267 40.3840044 21.4453125 40.3984375 C20.64681885 40.40413757 19.8483252 40.40983765 19.02563477 40.41571045 C17.3274875 40.42518136 15.62932167 40.43170269 13.93115234 40.43554688 C11.35871 40.44516888 8.78709546 40.47613574 6.21484375 40.5078125 C4.56250473 40.51435094 2.91016 40.5195981 1.2578125 40.5234375 C0.49807129 40.5357843 -0.26166992 40.5481311 -1.04443359 40.56085205 C-6.59778139 40.53823427 -11.6257517 39.57752481 -16.6796875 37.1953125 C-21.85970763 31.88579187 -21.88748501 28.0036784 -21.9296875 20.9453125 C-21.9503125 20.09839844 -21.9709375 19.25148438 -21.9921875 18.37890625 C-22.02434182 13.21009966 -21.54402184 9.67740046 -18.6796875 5.1953125 C-13.41946998 0.11648179 -6.89579034 -0.09145137 0 0 Z " fill="#202A3E" transform="translate(602.6796875,663.8046875)"/>
<path d="M0 0 C3.46189633 0.04725437 4.58769769 0.43451242 7.05126953 2.93115234 C9.20004375 6.03740051 11.12148796 9.2059031 13.00390625 12.48046875 C13.69818681 13.63599475 14.39546083 14.78972741 15.09570312 15.94165039 C16.46018811 18.19610292 17.80296984 20.45949715 19.13720703 22.73242188 C20.63636813 25.27551843 22.16841562 27.78515019 23.75 30.27734375 C24.13212646 30.87973877 24.51425293 31.48213379 24.90795898 32.1027832 C25.24899658 32.63991943 25.59003418 33.17705566 25.94140625 33.73046875 C28.94140625 38.53434806 28.94140625 38.53434806 28.94140625 40.79296875 C25.49196368 41.27522091 22.36901122 41.4941887 18.94140625 40.79296875 C16.52195497 38.46391455 15.13360816 35.91779269 13.94140625 32.79296875 C13.94140625 32.13296875 13.94140625 31.47296875 13.94140625 30.79296875 C9.56479584 30.6992675 5.19382467 30.70585137 0.81640625 30.73046875 C-1.03984375 30.68889648 -1.03984375 30.68889648 -2.93359375 30.64648438 C-9.64321944 30.51003611 -9.64321944 30.51003611 -15.07568359 33.84790039 C-16.62777435 36.27039719 -16.62777435 36.27039719 -17.70898438 38.80664062 C-19.05859375 40.79296875 -19.05859375 40.79296875 -21.73486328 41.36889648 C-24.23343759 41.35646464 -26.59284519 41.18768344 -29.05859375 40.79296875 C-27.79045043 37.38998693 -26.33478712 34.45071133 -24.3359375 31.421875 C-23.53397949 30.1985144 -23.53397949 30.1985144 -22.71582031 28.95043945 C-22.14831055 28.09409912 -21.58080078 27.23775879 -20.99609375 26.35546875 C-19.82257623 24.56923403 -18.64940119 22.78277427 -17.4765625 20.99609375 C-16.89825684 20.11759766 -16.31995117 19.23910156 -15.72412109 18.33398438 C-12.66425866 13.66569822 -9.6699304 8.95562967 -6.66796875 4.25 C-4.52610466 0.98001818 -3.8521525 0.4814674 0 0 Z " fill="#1F293C" transform="translate(1028.05859375,663.20703125)"/>
<path d="M0 0 C3.04620634 0.32211884 4.20685513 0.79751597 6.28442383 3.07568359 C6.81575928 3.88344238 7.34709473 4.69120117 7.89453125 5.5234375 C8.49338135 6.42715088 9.09223145 7.33086426 9.70922852 8.26196289 C12.80047979 13.14175 15.83622419 18.04920356 18.8125 23 C19.42351562 24.00998047 20.03453125 25.01996094 20.6640625 26.06054688 C22.30062171 28.76730146 23.93315874 31.4763959 25.5625 34.1875 C26.12163086 35.07783936 26.68076172 35.96817871 27.25683594 36.88549805 C28.5625 39.1875 28.5625 39.1875 28.5625 41.1875 C25.2625 41.1875 21.9625 41.1875 18.5625 41.1875 C18.03269531 39.72441406 17.50289063 38.26132812 16.95703125 36.75390625 C15.66950956 34.18250107 15.66950956 34.18250107 13.5625 32.1875 C8.80369475 30.87712652 4.15908684 31.01982275 -0.75 31.125 C-2.06291016 31.11791016 -3.37582031 31.11082031 -4.72851562 31.10351562 C-7.96702831 31.09173922 -11.19979869 31.12117837 -14.4375 31.1875 C-15.48309436 33.77970269 -16.50095364 36.36596336 -17.4375 39 C-19.4375 41.1875 -19.4375 41.1875 -21.85546875 41.5 C-24.40087882 41.5 -26.89957344 41.3650744 -29.4375 41.1875 C-25.75109747 34.3251362 -21.70537402 27.74227027 -17.5 21.1875 C-16.90509766 20.25421875 -16.31019531 19.3209375 -15.69726562 18.359375 C-14.51989379 16.51675591 -13.33667541 14.67785756 -12.1472168 12.84301758 C-11.01680794 11.08727617 -9.90581743 9.3188637 -8.81567383 7.5378418 C-8.30673584 6.72484619 -7.79779785 5.91185059 -7.2734375 5.07421875 C-6.83177246 4.35194092 -6.39010742 3.62966309 -5.93505859 2.88549805 C-4.02825147 0.72347595 -2.84547009 0.33829146 0 0 Z " fill="#232D40" transform="translate(465.4375,662.8125)"/>
<path d="M0 0 C14.85 0 29.7 0 45 0 C45 1.98 45 3.96 45 6 C33.12 6 21.24 6 9 6 C9 9.96 9 13.92 9 18 C19.89 18 30.78 18 42 18 C42 19.65 42 21.3 42 23 C31.11 23 20.22 23 9 23 C9 26.63 9 30.26 9 34 C20.88 34 32.76 34 45 34 C45 35.98 45 37.96 45 40 C30.15 40 15.3 40 0 40 C0 26.8 0 13.6 0 0 Z " fill="#212B3F" transform="translate(794,664)"/>
<path d="M0 0 C4.38901637 3.33441173 6.54098693 6.14813788 7.4375 11.6953125 C7.79167244 16.52091193 7.26935414 19.79175321 4.5 23.8125 C0.83140291 28.04549664 -2.77395307 29.97767058 -8.39453125 30.68359375 C-14.10013122 30.96587981 -17.51559868 30.2704845 -21.9375 26.375 C-26.5723599 21.23907417 -27.4629535 17.02588801 -27.41796875 10.2421875 C-26.59006941 5.30171503 -23.70291385 2.48106923 -19.9375 -0.625 C-13.86258757 -4.56548374 -5.92791229 -3.69406606 0 0 Z " fill="#F64A2A" transform="translate(932.9375,197.625)"/>
<path d="M0 0 C4.14327184 2.25631664 6.69711307 5.08172615 8.8125 9.3125 C9.32842086 14.48862405 9.40988983 18.94348164 7.3125 23.75 C2.57688103 28.60400945 -1.9599042 30.52989898 -8.75 30.875 C-14.16928044 30.66454251 -17.4194413 29.16644038 -21.1875 25.3125 C-24.7959993 21.35479109 -24.69394629 17.10526246 -24.53515625 11.96875 C-24.03694555 8.16219637 -22.78308352 6.11299801 -20.1875 3.3125 C-13.7064176 -1.58137854 -7.67844459 -3.55271317 0 0 Z " fill="#E3452A" transform="translate(957.1875,481.6875)"/>
<path d="M0 0 C16.17 0 32.34 0 49 0 C49 1.98 49 3.96 49 6 C42.4 6 35.8 6 29 6 C29 17.22 29 28.44 29 40 C26.03 40 23.06 40 20 40 C20 28.78 20 17.56 20 6 C13.4 6 6.8 6 0 6 C0 4.02 0 2.04 0 0 Z " fill="#232C3F" transform="translate(915,664)"/>
<path d="M0 0 C2.97 0 5.94 0 9 0 C9 11.22 9 22.44 9 34 C20.22 34 31.44 34 43 34 C43 35.98 43 37.96 43 40 C28.81 40 14.62 40 0 40 C0 26.8 0 13.6 0 0 Z " fill="#202C40" transform="translate(505,664)"/>
<path d="M0 0 C3.3 0 6.6 0 10 0 C10 13.2 10 26.4 10 40 C6.7 40 3.4 40 0 40 C0 26.8 0 13.6 0 0 Z " fill="#232C3D" transform="translate(1069,664)"/>
<path d="M0 0 C2.97 0 5.94 0 9 0 C9 13.2 9 26.4 9 40 C6.03 40 3.06 40 0 40 C0 26.8 0 13.6 0 0 Z " fill="#162033" transform="translate(558,664)"/>
<path d="M0 0 C0.495 1.485 0.495 1.485 1 3 C1.99 3.33 2.98 3.66 4 4 C-0.16576811 7.604833 -4.61264652 10.10352291 -9.4375 12.6875 C-16.05541676 16.2719236 -22.43455354 20.04892468 -28.58374023 24.39526367 C-32.49581365 27.05537784 -32.49581365 27.05537784 -35.3828125 26.73828125 C-35.91648437 26.49464844 -36.45015625 26.25101562 -37 26 C-36.63388228 23.47894102 -36.3241965 22.28736157 -34.38842773 20.5715332 C-33.68145752 20.13156006 -32.9744873 19.69158691 -32.24609375 19.23828125 C-31.43253418 18.72604004 -30.61897461 18.21379883 -29.78076172 17.68603516 C-28.40428467 16.85144775 -28.40428467 16.85144775 -27 16 C-25.49010498 15.07453369 -25.49010498 15.07453369 -23.94970703 14.13037109 C-20.66396006 12.132275 -17.36546775 10.15698339 -14.0625 8.1875 C-12.91590253 7.50083986 -11.76941747 6.81399197 -10.62304688 6.12695312 C-2.31012538 1.15506269 -2.31012538 1.15506269 0 0 Z " fill="#1F4E79" transform="translate(582,475)"/>
<path d="M0 0 C4.03441111 1.3448037 5.12667247 3.95309903 7.1875 7.4375 C7.55552734 8.03626953 7.92355469 8.63503906 8.30273438 9.25195312 C11 13.72070675 11 13.72070675 11 16 C4.4 16 -2.2 16 -9 16 C-7.3668559 12.7337118 -5.68063099 9.52037497 -3.9375 6.3125 C-3.41027344 5.33925781 -2.88304687 4.36601563 -2.33984375 3.36328125 C-1 1 -1 1 0 0 Z " fill="#ECECEE" transform="translate(1027,673)"/>
<path d="M0 0 C0.66 0 1.32 0 2 0 C3.63514233 2.4527135 5.1481246 4.89219755 6.625 7.4375 C7.25535156 8.49807617 7.25535156 8.49807617 7.8984375 9.58007812 C11 14.84165737 11 14.84165737 11 16 C4.73 16 -1.54 16 -8 16 C-6.46392719 12.15981797 -4.86686467 8.78151668 -2.875 5.1875 C-2.33617187 4.21167969 -1.79734375 3.23585938 -1.2421875 2.23046875 C-0.83226562 1.49441406 -0.42234375 0.75835938 0 0 Z " fill="#F4F4F6" transform="translate(464,672)"/>
<path d="M0 0 C0.66 0 1.32 0 2 0 C2.02887814 3.47914941 2.04675687 6.95826831 2.0625 10.4375 C2.07087891 11.43072266 2.07925781 12.42394531 2.08789062 13.44726562 C2.09111328 14.39150391 2.09433594 15.33574219 2.09765625 16.30859375 C2.10289307 17.18314209 2.10812988 18.05769043 2.11352539 18.95874023 C2 21 2 21 1 22 C-1.73894085 22.08858646 -4.4525327 22.11523479 -7.19140625 22.09765625 C-8.01124496 22.0962413 -8.83108368 22.09482635 -9.67576599 22.09336853 C-12.30471382 22.08775289 -14.93357773 22.07519779 -17.5625 22.0625 C-19.34049357 22.05748701 -21.11848846 22.05292376 -22.89648438 22.04882812 C-27.26435545 22.03777839 -31.63216348 22.02050331 -36 22 C-36 21.67 -36 21.34 -36 21 C-23.972438 20.20384932 -12.05542181 19.90432205 0 20 C0 13.4 0 6.8 0 0 Z " fill="#323B4C" transform="translate(631,682)"/>
<path d="M0 0 C2.125 0.375 2.125 0.375 4 1 C4 2.32 4 3.64 4 5 C1.625 6.0625 1.625 6.0625 -1 7 C-1.66 6.67 -2.32 6.34 -3 6 C-2.42655063 3.13275314 -2.1385485 2.1385485 0 0 Z " fill="#184974" transform="translate(548,495)"/>
<path d="M0 0 C0.33 0.66 0.66 1.32 1 2 C-0.28419041 3.67243402 -1.57757185 5.33781447 -2.875 7 C-3.59429688 7.928125 -4.31359375 8.85625 -5.0546875 9.8125 C-5.69664062 10.534375 -6.33859375 11.25625 -7 12 C-7.66 12 -8.32 12 -9 12 C-7.55575365 8.76138697 -5.74227753 6.38030837 -3.375 3.75 C-2.74335937 3.04359375 -2.11171875 2.3371875 -1.4609375 1.609375 C-0.97882812 1.07828125 -0.49671875 0.5471875 0 0 Z " fill="#B63544" transform="translate(832,324)"/>
<path d="M0 0 C0.66 0.66 1.32 1.32 2 2 C1.50628906 2.48210937 1.01257813 2.96421875 0.50390625 3.4609375 C-0.13675781 4.09257812 -0.77742187 4.72421875 -1.4375 5.375 C-2.07558594 6.00148438 -2.71367188 6.62796875 -3.37109375 7.2734375 C-5.07882176 8.91723061 -5.07882176 8.91723061 -6 11 C-6.66 11 -7.32 11 -8 11 C-6.63629701 8.00779732 -5.05091917 5.70973471 -2.875 3.25 C-2.33617187 2.63640625 -1.79734375 2.0228125 -1.2421875 1.390625 C-0.62730469 0.70226562 -0.62730469 0.70226562 0 0 Z " fill="#9E3357" transform="translate(810,350)"/>
<path d="M0 0 C0.33 0.66 0.66 1.32 1 2 C-1.31 4.64 -3.62 7.28 -6 10 C-6.66 9.67 -7.32 9.34 -8 9 C-5.36 6.03 -2.72 3.06 0 0 Z " fill="#E65B23" transform="translate(887,258)"/>
<path d="M0 0 C0.99 0.33 1.98 0.66 3 1 C2.54625 1.433125 2.0925 1.86625 1.625 2.3125 C-0.20024334 4.10798342 -0.20024334 4.10798342 -2 7 C-2.66 6.01 -3.32 5.02 -4 4 C-2.68 2.68 -1.36 1.36 0 0 Z " fill="#2E384A" transform="translate(515,413)"/>
<path d="M0 0 C0.66 0.66 1.32 1.32 2 2 C0.35 4.31 -1.3 6.62 -3 9 C-3.66 8.67 -4.32 8.34 -5 8 C-3.35 5.36 -1.7 2.72 0 0 Z " fill="#283448" transform="translate(453,676)"/>
<path d="M0 0 C0.66 0 1.32 0 2 0 C0.55746343 3.36591866 -1.33264727 5.51047079 -4 8 C-4.66 7.67 -5.32 7.34 -6 7 C-5.04882866 5.8274869 -4.08882991 4.66212985 -3.125 3.5 C-2.59132813 2.8503125 -2.05765625 2.200625 -1.5078125 1.53125 C-0.76144531 0.77328125 -0.76144531 0.77328125 0 0 Z " fill="#F6812B" transform="translate(908,232)"/>
</svg>
