<svg width="1200" height="900" viewBox="0 0 1200 900" fill="none" xmlns="http://www.w3.org/2000/svg">
  <rect width="1200" height="900" rx="44" fill="#F4E7D4"/>
  <rect x="74" y="74" width="1052" height="752" rx="36" fill="#FFFDF9"/>
  <rect x="124" y="124" width="408" height="652" rx="28" fill="#111111"/>
  <rect x="168" y="178" width="320" height="120" rx="20" fill="#EDE3D0"/>
  <rect x="168" y="332" width="320" height="32" rx="16" fill="#FAF5EC"/>
  <rect x="168" y="384" width="248" height="32" rx="16" fill="#FAF5EC"/>
  <rect x="168" y="446" width="320" height="180" rx="24" fill="#2D2B27"/>
  <circle cx="330" cy="694" r="28" fill="#4A7C59"/>
  <path d="M702 260C702 206.98 744.98 164 798 164H914C967.02 164 1010 206.98 1010 260V540C1010 593.02 967.02 636 914 636H798C744.98 636 702 593.02 702 540V260Z" fill="#C84B31"/>
  <rect x="750" y="218" width="212" height="84" rx="18" fill="#FAF5EC"/>
  <rect x="750" y="336" width="212" height="24" rx="12" fill="#F4E7D4"/>
  <rect x="750" y="376" width="176" height="24" rx="12" fill="#F4E7D4"/>
  <rect x="600" y="678" width="412" height="44" rx="22" fill="#111111"/>
  <text x="600" y="126" fill="#111111" font-family="Arial, sans-serif" font-size="44" font-weight="700">Observed ChatGPT ad card preview</text>
  <text x="600" y="184" fill="#2D2B27" font-family="Arial, sans-serif" font-size="28">Home backup power creative with nonblank local image</text>
</svg>
